/* XPM */
static char *dummy[]={
"129 129 6 1",
"a c #000000",
"b c #333333",
"c c #666666",
"d c #999999",
". c #cccccc",
"# c #ffffff",
".................................................................................................................................",
".................................................................................................................................",
".................................................................................................................................",
".................................................................................................................................",
".................................................................................................................................",
".................................................................................................................................",
"..................................................................................................#..............................",
"..................................................................................................#..............................",
".............................................................................................#....#..............................",
".................................................................................................................................",
".................................................................................................................................",
".................................................................................................................................",
".............................................................................................................##..............#...",
".............................................................................................................................#...",
".............................................................................................................##.............#....",
"................................................................#..........#..#....................##......#.##.#................",
".................................................................#.........#....#..........................####.#................",
"...............................................................................................#...........#....#.#........##..#.",
"...................................#...........................................#...........................##...#..#.......##....",
"................................................................##.......##.#..#..........#.............#..#....#....#.........#.",
"...........#.#............#............#.............................#......#..#........#......#..#.......##......#..###.#.......",
".............##......#...............#........................#.##.####.................#..............#####.#..####.#.#.........",
".............##.................................................##..###.................#.........#.....#####.#.####.#...#......#",
"........#.........................#..............................#.#..#....#...........................####..###.###...#.##...#.#",
"........#...............................#...........#............................#....#..................##.#...####.######...#.#",
"...........#.....................................aaaaaaaaaaaaaaaaaaaa.................##..........#.....####.#.#..######.##...#.#",
".............................................aaaaaabbbccccccccccbbbaaaaaa#.....#.........#..............####...##.##.#####......#",
"...........................#...............aaaabbcdddddddddddddddddccbbaaaa....#.........#..............####...#########.#......#",
".........................................aaaabcddddddddddddddddddddddddcbaaaa##..........................##..##..###.##..##.....#",
"........................................aaabcddddddddddddddddddddddddddddcbaaa#..............#..........####.###.###.....##......",
"......................................aaabcddddddddddddddddddddddddddddddddcaaa..........#.##.............#.#.....##..#.#..#.....",
"...............#.....................aaabdddddddddddddddddddddddddddddddddddcbaa.....#....###.....................##....##.......",
".....................................aabdddddddddddddddddddddddddddddddddddddcbaa...##.....##..#................#.....#.#.#......",
"....................................aabddddddddddddddddddddddddddddddddddddddddbaa.#.....#...#.#.................................",
"...................................aabdddddddddddddddddddddddddddddddddddddddddcbaa#....##........#.###..........................",
"..................................aaacddddddddddddddddddddddddddddddddddddddddddcaaa..............#.###..#####...................",
"..................................aacddddddddddddddddddddddddddddddddddddddddddddcaa..............#.##...###......###............",
".................................aabddddddddddddddddddddddddddddddddddddddddddddddba..............#....##.#.......##..##..#......",
".................................aacddddddddddddddddddddddddddddddddddddddddddddddcaa..........#..#....#..........#....#.........",
".................................abddddddddddddddddddddddddddddddddddddddddddddddddaa...............#......##....###...#.....#...",
".........................#.##.#.aacdddddddddddddddddddddccccccdddddddddddddddddddddba#..............##....#......#..#........##..",
".........................#.####.aaddddddddddddddddddddcbaaaaaabcdddddddddddddddddddcaa..............##...........#..#.........#..",
".#..............................abdddddddddddddddddddcaaaa..aaabcddddddddddddddddddcaa....................#.........#.........#..",
"...........#...................aacddddddddddddddddddcaaa......aabdddddddddddddddddddaa...........................................",
"...........#.....d........#..#.aacddddddddddddddddddbaa........aadddddddddddddddddddaa##.........................................",
".................d.............aaddddddddddddddddddcaa.........aacddddddddddddddddddba##.........................................",
".#....#..........d........#....abddddddddddddddddddba..........aacddddddddddddddddddaa...........................................",
"#..............................abddddddddddddddddddaa..........abdddddddddddddddddddaa............#..............................",
"...............................abbccccddddddddddddcaa.........aacddddddddddddddddddcaa.....##..#.................................",
"...............................aaaaaaaabbbccccddddca.........aabdddddddddddddddddddcaa..#....#.#.................................",
".#..................................aaaaaaaaaaabbbba........aabcdddddddddddddddddddba...#....#.#.......#.........................",
"..#.......................................#.aaaaaaaa......aaabcdddddddddddddddddddcaa................#....##.....................",
".........................................##..............aaabdddddddddddddddddddddbaa...............##.............#.............",
"...........#............................................aaacdddddddddddddddddddddcaa................##..........#................",
"...........#....................................#......aaacddddddddddddddddddddddbaa................##..........#................",
".............................................##.......aaacddddddddddddddddddddddbaa..#............#.#............................",
".....................................................aabcddddddddddddddddddddddcaa...............................................",
"............................................#.......aabcddddddddddddddddddddddcaaa...............................................",
"...................................................aabcddddddddddddddddddddddcaaa...................##..#........................",
"..................................................aabdddddddddddddddddddddddbaaa................................#................",
".........................................##......aabcdddddddddddddddddddddcbaaa..................................................",
".......................................#.##......aacdddddddddddddddddddddcbaaa..........................#........................",
"..............#.................................aacdddddddddddddddddddddcaaa.....................................................",
".............#..................................abdddddddddddddddddddddcaaa......................................................",
"...............................................aacddddddddddddddddddddbaaa.......................................................",
"...........................##..................aacdddddddddddddddddddbaaa........................................................",
"...........................##...........#......abdddddddddddddddddddbaaa.........................................................",
".......#.......................................abddddddddddddddddddcaaa..........................................................",
".......................................##......acdddddddddddddddddcaaa...........................................................",
"...................................#....#......acdddddddddddddddddbaa............................................................",
"...................................#...##.....aacdddddddddddddddddba.............................................................",
"........#..................##.......#..#.##...aadddddddddddddddddcaa.....##...............#....#......................##.........",
".....#.....................##..........#......aadddddddddddddddddcaa...................................................#.#.......",
".....#......................#..........#......aadddddddddddddddddca......#.......................................................",
"....##..........#.................#....#......aabbbbbbbbbbbbbbbbbba.......................#.........#............................",
".....................#............#..#........aaaaaaaaaaaaaaaaaaaaa..............................................................",
".....................#............#.##...##.......#..#...........................................................................",
".....................#............#.##...###...#.#..............................................................#................",
"..................................#.##...###..aaaaaaaaaaaaaaaaaaaaaa............................................#................",
".............#...#.#..............#.##..#...#.abccccccccccccccccccba............................................#................",
".............##..###.#..#.......###.......####acddddddddddddddddddba............................................#.........#......",
"....##...##.#.....##.#..#.#.............#.....acddddddddddddddddddba.............................................................",
"....##...##.#.#...##.#....#..................#acddddddddddddddddddba.............................................................",
"..................#.......#.............#.....acddddddddddddddddddba.............................................................",
"##..................................##......#.acddddddddddddddddddba.............................................................",
"###.##.............#.###......#.....#.......#.acddddddddddddddddddba.............................................................",
"##..##..........#....###.....##....###......#.acddddddddddddddddddba.............................................................",
"...###...............#####.##............#....acddddddddddddddddddba......................................................#......",
"....####..............#.#...##.....#.....#....acddddddddddddddddddba.............................................................",
"####.#.#.............#.......##.#.#.#........#acddddddddddddddddddba.............................................................",
"#.###.#.#............#..#.#..#..#.#.#.##......acddddddddddddddddddba...........................................#....#............",
"##.#.#..#...............#.#..#..###..###......acddddddddddddddddddba.............................................................",
"..#.###....#............#.###...##..###.......acddddddddddddddddddba.............................................................",
"..#.###.###...............###....#..#.........acddddddddddddddddddba.............................................................",
"....#.##.##.....#.....##..###...#.#...........acddddddddddddddddddba.............................................................",
"..#...#.##............##..###..#..............acddddddddddddddddddba.............................................................",
"......##....##.##.....##...##..#.##.##......#.aaaaaaaaaaaaaaaaaaaaaa.............................................................",
".......#...##.###..............#..#.##...##.#............##......................................................................",
"...##.##...##...#............#.#..#.##.........#....#....#.........#.............................................................",
"...#...#.##.#...#............#......##.......###.#........#.......#..............................................................",
"...#..##.#..#...##.#.........#......##.......#.#.##......#........##.............................................................",
"...#.....##.#..##.###........#.......#.......##..###.###..###...###..............................................................",
".......#.....########...#.#.........##....#..........###...##....................................................................",
".............#...####...#.#.................#.#............##....................................................................",
"......................#.#.#.................#........#.#.........................................................................",
".....................####..................#.........#.......#...................................................................",
"........................#..............##..#...#..##.#.......#......##...........................................................",
"...#..................##...............#...#......##..#..#...........#...........................................................",
"......................#.............#..#...#.....................................................................................",
"......................##...................#......#..............................................................................",
"...........#...........#...................#.......#................................#............................................",
"......................#..........................#..............#...................#.##.#.......................................",
".....................##...#.....................................................#...#.##.........................................",
".....................###........................................................#.....##.........................................",
"......................##......#.................................................#.....##.........................................",
".......................##....................................................................#...................................",
"...............................#......................................#......................#..##...............................",
".............................................................................##.................##..##...........................",
".............................................................................##.................##..##...........................",
".............................................................................##......................#...........................",
"......................................................................#...............................#..........................",
"..............#...............#................................#..#...............................##..#..........................",
"......................................................................#.........#..........##...#..#.............................",
".................................................................#....#.........#...........#...#..#.............................",
"..............................................................#.#.......#..#.......................#...#.........................",
"..............................................................#.#.......#..................................#.....................",
"................................................................##...............................................................",
".................................................................#...............................................................",
".....................................................................................................#..........................."};
