solid ascii
 facet normal 0.866025 0 -0.5
  outer loop
   vertex 0.5 0.5 0
   vertex 0.5 -0.5 0
   vertex 0.25 -0.5 -0.433013
  endloop
 endfacet
 facet normal 0 0 -1
  outer loop
   vertex 0.25 0.5 -0.433013
   vertex 0.25 -0.5 -0.433013
   vertex -0.25 -0.5 -0.433013
  endloop
 endfacet
 facet normal -0.866025 0 -0.5
  outer loop
   vertex -0.25 0.5 -0.433013
   vertex -0.25 -0.5 -0.433013
   vertex -0.5 -0.5 -6.12323e-017
  endloop
 endfacet
 facet normal -0.866025 0 0.5
  outer loop
   vertex -0.5 0.5 -6.12323e-017
   vertex -0.5 -0.5 -6.12323e-017
   vertex -0.25 -0.5 0.433013
  endloop
 endfacet
 facet normal 0 0 1
  outer loop
   vertex -0.25 0.5 0.433013
   vertex -0.25 -0.5 0.433013
   vertex 0.25 -0.5 0.433013
  endloop
 endfacet
 facet normal 0.866025 -0 0.5
  outer loop
   vertex 0.25 0.5 0.433013
   vertex 0.25 -0.5 0.433013
   vertex 0.5 -0.5 0
  endloop
 endfacet
 facet normal 0 1 -0
  outer loop
   vertex 0.5 0.5 0
   vertex 0.25 0.5 -0.433013
   vertex -0.25 0.5 -0.433013
  endloop
 endfacet
 facet normal 0 -1 -0
  outer loop
   vertex 0.25 -0.5 0.433013
   vertex -0.25 -0.5 0.433013
   vertex -0.5 -0.5 -6.12323e-017
  endloop
 endfacet
endsolid
