<?xml version="1.0" encoding="UTF-8" standalone="no"?>
<!-- Created with Inkscape (http://www.inkscape.org/) -->
<svg xmlns:dc="http://purl.org/dc/elements/1.1/" xmlns:cc="http://creativecommons.org/ns#" xmlns:rdf="http://www.w3.org/1999/02/22-rdf-syntax-ns#" xmlns:svg="http://www.w3.org/2000/svg" xmlns="http://www.w3.org/2000/svg" xmlns:sodipodi="http://sodipodi.sourceforge.net/DTD/sodipodi-0.dtd" xmlns:inkscape="http://www.inkscape.org/namespaces/inkscape" width="402.14285" height="124.28571" id="svg4980" version="1.1" inkscape:version="0.48.4 r9939" sodipodi:docname="quadratic_formula.svg">
  <sodipodi:namedview id="base" pagecolor="#ffffff" bordercolor="#666666" borderopacity="1.0" inkscape:pageopacity="0.0" inkscape:pageshadow="2" inkscape:zoom="1.4" inkscape:cx="268.93408" inkscape:cy="53.886511" inkscape:document-units="px" inkscape:current-layer="g4993" showgrid="false" inkscape:window-width="1600" inkscape:window-height="876" inkscape:window-x="0" inkscape:window-y="24" inkscape:window-maximized="1" fit-margin-top="0" fit-margin-left="0" fit-margin-right="0" fit-margin-bottom="0"/>
  <defs id="defs4982"/>
  <metadata id="metadata4985">
    <rdf:RDF>
      <cc:Work rdf:about="">
        <dc:format>image/svg+xml</dc:format>
        <dc:type rdf:resource="http://purl.org/dc/dcmitype/StillImage"/>
        <dc:title/>
      </cc:Work>
    </rdf:RDF>
  </metadata>
  <g id="layer1" inkscape:groupmode="layer" inkscape:label="Layer 1" transform="translate(-192.57839,-580.65309)">
    <g id="g4993">
      <g id="g5176" transform="translate(-86.503713,300.6294)">
        <g word-spacing="normal" letter-spacing="normal" font-size-adjust="none" font-stretch="normal" font-weight="normal" font-variant="normal" font-style="normal" stroke-miterlimit="10.433" xml:space="preserve" transform="matrix(1.0629921,0,0,-1.0629921,-186.02362,789.27165)" id="g5178" style="font-style:normal;font-variant:normal;font-weight:normal;font-stretch:normal;letter-spacing:normal;word-spacing:normal;text-anchor:start;fill:none;stroke:#000000;stroke-linecap:butt;stroke-linejoin:miter;stroke-miterlimit:10.43299961;stroke-opacity:1;stroke-dasharray:none;stroke-dashoffset:0"><path id="path5180" d="m 472.16,419.09 0.03,0.13 0.04,0.15 0.04,0.16 0.04,0.18 0.06,0.19 0.06,0.21 0.06,0.22 0.07,0.22 0.08,0.23 0.09,0.24 0.1,0.25 0.1,0.24 0.11,0.25 0.12,0.25 0.13,0.25 0.14,0.25 0.15,0.24 0.15,0.24 0.17,0.23 0.18,0.22 0.18,0.22 0.2,0.2 0.21,0.19 0.22,0.18 0.23,0.16 0.25,0.14 0.12,0.07 0.13,0.06 0.14,0.05 0.13,0.05 0.14,0.05 0.14,0.04 0.15,0.03 0.15,0.03 0.15,0.02 0.16,0.02 0.16,0.01 0.16,0 c 0.25,0 1.44,0 2.48,-0.64 -1.39,-0.25 -2.39,-1.5 -2.39,-2.69 0,-0.79 0.55,-1.75 1.89,-1.75 1.1,0 2.69,0.89 2.69,2.89 0,2.6 -2.94,3.28 -4.63,3.28 -2.89,0 -4.64,-2.64 -5.23,-3.78 -1.25,3.28 -3.94,3.78 -5.37,3.78 -5.19,0 -8.04,-6.42 -8.04,-7.67 0,-0.5 0.5,-0.5 0.61,-0.5 0.39,0 0.55,0.11 0.64,0.55 1.69,5.28 4.99,6.53 6.68,6.53 0.95,0 2.68,-0.44 2.68,-3.33 0,-1.54 -0.84,-4.89 -2.68,-11.86 -0.8,-3.09 -2.54,-5.18 -4.74,-5.18 -0.3,0 -1.44,0 -2.48,0.65 1.25,0.24 2.34,1.28 2.34,2.69 0,1.34 -1.09,1.73 -1.84,1.73 -1.5,0 -2.75,-1.29 -2.75,-2.89 0,-2.28 2.5,-3.28 4.68,-3.28 3.3,0 5.08,3.49 5.24,3.78 0.59,-1.84 2.39,-3.78 5.37,-3.78 5.14,0 7.99,6.42 7.99,7.67 0,0.5 -0.45,0.5 -0.61,0.5 -0.44,0 -0.55,-0.2 -0.64,-0.54 -1.64,-5.33 -5.03,-6.53 -6.63,-6.53 -1.95,0 -2.75,1.59 -2.75,3.29 0,1.1 0.3,2.19 0.86,4.38 z" inkscape:connector-curvature="0" style="fill:#000000;stroke-width:0"/><path id="path5182" d="m 532.11,420.34 0.14,0 0.15,0 0.14,0 0.07,0.01 0.08,0 0.07,0.01 0.07,0.01 0.07,0.01 0.07,0.01 0.07,0.01 0.06,0.02 0.07,0.02 0.06,0.02 0.06,0.02 0.06,0.03 0.06,0.03 0.05,0.04 0.05,0.03 0.05,0.05 0.04,0.04 0.04,0.05 0.02,0.03 0.02,0.03 0.01,0.02 0.02,0.03 0.01,0.03 0.02,0.04 0.01,0.03 0.01,0.04 0.01,0.03 0.01,0.04 0,0.04 0.01,0.04 0,0.04 0.01,0.04 0,0.04 0,0.05 c 0,1 -0.95,1 -1.64,1 h -29.84 c -0.71,0 -1.64,0 -1.64,-1 0,-0.98 0.93,-0.98 1.68,-0.98 z" inkscape:connector-curvature="0" style="fill:#000000;stroke-width:0"/><path id="path5184" d="m 532.16,410.66 0.07,0 0.06,0 0.14,0.01 0.14,0 0.07,0 0.07,0.01 0.07,0.01 0.07,0 0.06,0.01 0.07,0.02 0.07,0.01 0.06,0.02 0.07,0.02 0.06,0.02 0.06,0.02 0.06,0.03 0.05,0.03 0.05,0.04 0.05,0.04 0.05,0.04 0.04,0.05 0.02,0.02 0.02,0.03 0.02,0.02 0.02,0.03 0.01,0.03 0.02,0.03 0.01,0.03 0.02,0.03 0.01,0.04 0.01,0.03 0.01,0.04 0.01,0.04 0,0.04 0.01,0.04 0,0.04 0.01,0.04 0,0.05 0,0.04 c 0,1 -0.95,1 -1.69,1 h -29.75 c -0.75,0 -1.68,0 -1.68,-1 0,-1 0.93,-1 1.64,-1 z" inkscape:connector-curvature="0" style="fill:#000000;stroke-width:0"/><path id="path5186" d="m 582.36,431.95 0.06,0 0.05,0 0.11,0 0.12,0.01 0.06,0 0.06,0.01 0.06,0 0.06,0.01 0.05,0.01 0.06,0.01 0.06,0.01 0.05,0.01 0.06,0.02 0.05,0.02 0.05,0.02 0.05,0.02 0.05,0.03 0.04,0.03 0.04,0.03 0.04,0.04 0.04,0.04 0.02,0.02 0.02,0.02 0.01,0.02 0.02,0.03 0.01,0.02 0.01,0.03 0.02,0.02 0.01,0.03 0.01,0.03 0.01,0.03 0.01,0.03 0,0.03 0.01,0.03 0,0.04 0.01,0.03 0,0.04 0,0.04 0,0.04 c 0,0.86 -0.79,0.86 -1.39,0.86 H 561.6 c -0.57,0 -1.39,0 -1.39,-0.83 0,-0.88 0.79,-0.88 1.39,-0.88 z" inkscape:connector-curvature="0" style="fill:#000000;stroke-width:0"/><path id="path5188" d="m 596.72,447.22 0,0 0.01,0.01 0,0 0,0.01 0,0 0,0.01 0.01,0 0,0.01 0,0.01 0,0 0.01,0.02 0,0.02 0.01,0.02 0,0.02 0.01,0.02 0.01,0.02 0,0.02 0.01,0.02 0,0.03 0.01,0.04 0.02,0.05 0,0.02 0.01,0.03 0,0.02 0.01,0.02 0,0.02 0.01,0.02 0,0.01 0,0.02 0,0.01 0.01,0 0,0.01 0,0.01 0,0 0,0.01 0,0 0,0.01 0,0 0,0 0,0 0,0.01 c 0,0.18 -0.14,0.5 -0.56,0.5 -0.7,0 -3.59,-0.29 -4.45,-0.36 -0.28,-0.03 -0.78,-0.07 -0.78,-0.8 0,-0.49 0.5,-0.49 0.9,-0.49 1.68,0 1.68,-0.24 1.68,-0.53 0,-0.23 -0.35,-1.62 -0.55,-2.43 l -0.8,-3.21 c -0.33,-1.18 -2.23,-8.81 -2.31,-9.26 -0.17,-0.85 -0.17,-1.3 -0.17,-1.71 0,-3.53 2.23,-5.75 5.12,-5.75 l 0.03,0.97 c -1.7,0 -2.67,1.5 -2.67,3.57 0,1.28 0.31,2.46 1.28,6.4 0.2,0.66 0.2,0.74 0.88,1.5 1.32,1.53 2.89,2.3 4.14,2.3 1.36,0 2.55,-1.02 2.55,-3.38 0,-1.43 -0.77,-4.98 -1.82,-7.01 -0.84,-1.7 -2.58,-3.38 -4.36,-3.38 h 0 l -0.03,-0.97 c 4.36,0 8.99,4.74 8.99,9.89 0,4.08 -2.82,5.82 -5.22,5.82 -1.81,0 -3.35,-1 -4.39,-1.91 z" inkscape:connector-curvature="0" style="fill:#000000;stroke-width:0"/><path id="path5190" d="m 621.45,435.16 h 10.59 c 0.56,0 1.39,0 1.39,0.84 0,0.86 -0.8,0.86 -1.39,0.86 h -10.59 v 10.5 c 0,0.62 0,1.5 -0.86,1.5 -0.85,0 -0.85,-0.81 -0.85,-1.33 v -10.67 h -10.62 c -0.6,0 -1.39,0 -1.39,-0.86 0,-0.84 0.82,-0.84 1.39,-0.84 h 10.62 v -10.28 h -10.62 c -0.6,0 -1.39,0 -1.39,-0.86 0,-0.85 0.82,-0.85 1.39,-0.85 h 22.92 c 0.56,0 1.39,0 1.39,0.85 0,0.86 -0.8,0.86 -1.39,0.86 h -10.59 z" inkscape:connector-curvature="0" style="fill:#000000;stroke-width:0"/><path id="path5192" d="m 651.56,423.3 -6.83,13.56 c -0.17,0.34 -0.28,0.55 -0.56,0.55 -0.14,0 -0.2,0 -0.57,-0.27 l -3.71,-2.48 c -0.49,-0.32 -0.49,-0.49 -0.49,-0.6 0,-0.2 0.17,-0.48 0.49,-0.48 0.14,0 0.2,0 0.65,0.31 0.39,0.28 1.39,0.99 1.81,1.27 L 650,420.09 c 0.23,-0.51 0.31,-0.59 0.79,-0.59 0.31,0 0.69,0 1.05,0.67 l 17.51,32.61 c 0.29,0.45 0.29,0.52 0.29,0.7 0,0.55 -0.46,0.86 -0.83,0.86 -0.53,0 -0.71,-0.31 -0.91,-0.73 z" inkscape:connector-curvature="0" style="fill:#000000;stroke-width:0"/><polyline id="polyline5194" points="669,453 796.44,453 796.44,454.8 669,454.8 " style="fill:#000000;fill-rule:nonzero;stroke-width:0"/><path id="path5196" d="m 678.08,447.22 0,0 0.01,0.01 0,0 0,0.01 0,0 0,0.01 0,0 0.01,0.01 0,0.01 0,0 0.01,0.02 0,0.02 0.01,0.02 0,0.02 0.01,0.02 0,0.02 0.01,0.02 0.01,0.02 0,0.03 0.01,0.04 0.02,0.05 0,0.02 0.01,0.03 0,0.02 0.01,0.02 0,0.02 0.01,0.02 0,0.01 0,0.02 0,0.01 0.01,0 0,0.01 0,0.01 0,0 0,0.01 0,0 0,0.01 0,0 0,0 0,0 0,0.01 c 0,0.18 -0.14,0.5 -0.56,0.5 -0.7,0 -3.59,-0.29 -4.45,-0.36 -0.28,-0.03 -0.78,-0.07 -0.78,-0.8 0,-0.49 0.5,-0.49 0.9,-0.49 1.67,0 1.67,-0.24 1.67,-0.53 0,-0.23 -0.34,-1.62 -0.54,-2.43 l -0.8,-3.21 c -0.33,-1.18 -2.23,-8.81 -2.31,-9.26 -0.17,-0.85 -0.17,-1.3 -0.17,-1.71 0,-3.53 2.23,-5.75 5.12,-5.75 l 0.03,0.97 c -1.7,0 -2.67,1.5 -2.67,3.57 0,1.28 0.31,2.46 1.28,6.4 0.21,0.66 0.21,0.74 0.88,1.5 1.33,1.53 2.89,2.3 4.14,2.3 1.36,0 2.54,-1.02 2.54,-3.38 0,-1.43 -0.76,-4.98 -1.81,-7.01 -0.84,-1.7 -2.58,-3.38 -4.36,-3.38 h 0 l -0.03,-0.97 c 4.36,0 8.98,4.74 8.98,9.89 0,4.08 -2.81,5.82 -5.21,5.82 -1.82,0 -3.35,-1 -4.39,-1.91 z" inkscape:connector-curvature="0" style="fill:#000000;stroke-width:0"/><path id="path5198" d="m 701.07,438.85 h -1.05 c -0.07,-0.48 -0.32,-2.01 -0.72,-2.26 -0.2,-0.16 -2.29,-0.16 -2.67,-0.16 h -4.87 c 1.64,1.22 3.48,2.61 4.98,3.61 2.24,1.55 4.33,3 4.33,5.64 0,3.19 -3.02,4.95 -6.58,4.95 -3.36,0 -5.83,-1.95 -5.83,-4.39 0,-1.29 1.1,-1.51 1.46,-1.51 0.67,0 1.47,0.45 1.47,1.47 0,0.89 -0.66,1.39 -1.43,1.46 0.69,1.13 2.14,1.88 3.82,1.88 2.4,0 4.42,-1.45 4.42,-3.89 0,-2.1 -1.44,-3.69 -3.36,-5.31 l -6.08,-5.16 c -0.25,-0.22 -0.26,-0.22 -0.3,-0.39 v -0.75 h 11.58 z" inkscape:connector-curvature="0" style="fill:#000000;stroke-width:0"/><path id="path5200" d="m 731.76,431.95 0.06,0 0.05,0 0.11,0 0.12,0.01 0.06,0 0.06,0.01 0.05,0 0.06,0.01 0.06,0.01 0.06,0.01 0.06,0.01 0.05,0.01 0.05,0.02 0.06,0.02 0.05,0.02 0.05,0.02 0.05,0.03 0.04,0.03 0.04,0.03 0.04,0.04 0.04,0.04 0.02,0.02 0.01,0.02 0.02,0.02 0.01,0.03 0.02,0.02 0.01,0.03 0.01,0.02 0.02,0.03 0.01,0.03 0.01,0.03 0,0.03 0.01,0.03 0.01,0.03 0,0.04 0.01,0.03 0,0.04 0,0.04 0,0.04 c 0,0.86 -0.8,0.86 -1.39,0.86 H 711 c -0.57,0 -1.4,0 -1.4,-0.83 0,-0.88 0.8,-0.88 1.4,-0.88 z" inkscape:connector-curvature="0" style="fill:#000000;stroke-width:0"/><path id="path5202" d="m 755.35,429.8 v 1.25 h -3.87 v 15.54 c 0,0.72 0,0.97 -0.76,0.97 -0.43,0 -0.57,0 -0.91,-0.48 l -11.53,-16.03 v -1.25 h 10.25 l 0.23,1.25 h -9.2 l 9.2,12.75 v -12.75 l -0.23,-1.25 v -2.86 c 0,-1.19 0,-1.61 -2.83,-1.61 h -0.94 v -1.25 c 1.74,0.06 3.97,0.14 5.22,0.14 1.3,0 3.52,-0.08 5.27,-0.14 v 1.25 h -0.94 c -2.83,0 -2.83,0.42 -2.83,1.61 v 2.86 z" inkscape:connector-curvature="0" style="fill:#000000;stroke-width:0"/><path id="path5204" d="m 771.42,437.39 -0.07,0.11 -0.07,0.1 -0.08,0.1 -0.08,0.11 -0.08,0.1 -0.08,0.09 -0.09,0.1 -0.09,0.09 -0.09,0.09 -0.09,0.09 -0.1,0.09 -0.1,0.08 -0.1,0.08 -0.11,0.08 -0.11,0.07 -0.11,0.07 -0.11,0.07 -0.12,0.06 -0.12,0.06 -0.12,0.06 -0.12,0.05 -0.13,0.05 -0.13,0.05 -0.13,0.04 -0.14,0.03 -0.14,0.04 -0.14,0.02 -0.14,0.03 -0.15,0.01 -0.15,0.02 -0.15,0.01 -0.16,0 v -0.97 c 2.44,0 3.11,-2.64 3.11,-3.03 0,-0.14 -0.08,-0.39 -0.11,-0.49 l -1.64,-6.51 c -0.23,-0.99 -1,-1.67 -1.76,-2.35 -0.32,-0.26 -1.72,-1.39 -3.22,-1.39 -1.28,0 -2.53,0.91 -2.53,3.38 0,1.86 1,5.69 1.81,7.08 1.59,2.79 3.37,3.31 4.34,3.31 v 0.97 c -4.45,0 -8.98,-4.91 -8.98,-9.92 0,-3.38 2.26,-5.79 5.26,-5.79 1.88,0 3.55,1.08 4.94,2.44 0.68,-2.09 2.69,-2.44 3.6,-2.44 1.25,0 2.12,0.77 2.75,1.85 0.76,1.36 1.21,3.34 1.21,3.48 0,0.46 -0.45,0.46 -0.54,0.46 -0.5,0 -0.53,-0.14 -0.77,-1.08 -0.42,-1.67 -1.09,-3.74 -2.54,-3.74 -0.91,0 -1.16,0.77 -1.16,1.71 0,0.59 0.28,1.86 0.53,2.76 0.23,0.94 0.6,2.36 0.77,3.13 l 0.68,2.65 c 0.22,0.91 0.63,2.55 0.63,2.72 0,0.77 -0.63,1.11 -1.17,1.11 -0.6,0 -1.41,-0.42 -1.61,-1.39 z" inkscape:connector-curvature="0" style="fill:#000000;stroke-width:0"/><path id="path5206" d="m 793.58,437.42 -0.12,-0.02 -0.11,-0.02 -0.11,-0.03 -0.1,-0.04 -0.1,-0.04 -0.1,-0.04 -0.09,-0.04 -0.08,-0.05 -0.09,-0.05 -0.08,-0.06 -0.07,-0.05 -0.07,-0.06 -0.07,-0.07 -0.06,-0.06 -0.06,-0.07 -0.06,-0.06 -0.05,-0.07 -0.05,-0.07 -0.04,-0.08 -0.04,-0.07 -0.04,-0.07 -0.03,-0.08 -0.04,-0.08 -0.02,-0.07 -0.03,-0.08 -0.02,-0.07 -0.01,-0.08 -0.02,-0.08 -0.01,-0.07 -0.01,-0.08 0,-0.07 0,-0.07 c 0,-0.94 0.73,-1.28 1.36,-1.28 0.76,0 1.98,0.54 1.98,2.22 0,2.37 -2.72,3.03 -4.59,3.03 -5.24,0 -10.08,-4.8 -10.08,-9.64 0,-3 2.09,-6.07 6.45,-6.07 5.89,0 8.64,3.44 8.64,3.94 0,0.21 -0.31,0.6 -0.59,0.6 -0.2,0 -0.28,-0.08 -0.56,-0.36 -2.72,-3.21 -6.8,-3.21 -7.43,-3.21 -2.5,0 -3.62,1.71 -3.62,3.88 0,1 0.5,4.8 2.31,7.2 1.31,1.72 3.13,2.69 4.88,2.69 0.48,0 2.15,-0.06 3.03,-1.05 z" inkscape:connector-curvature="0" style="fill:#000000;stroke-width:0"/><polyline id="polyline5208" points="556,415 795.88,415 795.88,417.04 556,417.04 " style="fill:#000000;fill-rule:nonzero;stroke-width:0"/><path id="path5210" d="m 673.27,393.11 h -1.18 c -0.1,-0.77 -0.46,-2.83 -0.91,-3.18 -0.27,-0.2 -2.95,-0.2 -3.44,-0.2 h -6.42 c 3.66,3.23 4.88,4.2 6.97,5.84 2.58,2.07 4.98,4.22 4.98,7.54 0,4.21 -3.68,6.79 -8.15,6.79 -4.32,0 -7.25,-3.03 -7.25,-6.23 0,-1.78 1.5,-1.96 1.86,-1.96 0.82,0 1.84,0.6 1.84,1.85 0,0.62 -0.25,1.84 -2.06,1.84 1.08,2.47 3.45,3.24 5.09,3.24 3.49,0 5.3,-2.71 5.3,-5.53 0,-3.04 -2.16,-5.44 -3.28,-6.69 l -8.39,-8.3 c -0.36,-0.31 -0.36,-0.39 -0.36,-1.36 h 14.36 z" inkscape:connector-curvature="0" style="fill:#000000;stroke-width:0"/><path id="path5212" d="m 690.18,400.07 -0.07,0.11 -0.07,0.11 -0.08,0.1 -0.08,0.1 -0.08,0.1 -0.08,0.1 -0.09,0.09 -0.09,0.1 -0.09,0.09 -0.09,0.08 -0.1,0.09 -0.1,0.08 -0.1,0.08 -0.11,0.08 -0.1,0.07 -0.12,0.08 -0.11,0.06 -0.12,0.07 -0.11,0.06 -0.13,0.05 -0.12,0.06 -0.13,0.05 -0.13,0.04 -0.13,0.04 -0.14,0.04 -0.13,0.03 -0.15,0.03 -0.14,0.02 -0.15,0.02 -0.15,0.01 -0.15,0.01 -0.15,0 v -0.97 c 2.43,0 3.11,-2.64 3.11,-3.03 0,-0.14 -0.08,-0.39 -0.11,-0.48 l -1.64,-6.52 c -0.24,-0.98 -1,-1.67 -1.77,-2.34 -0.31,-0.27 -1.72,-1.39 -3.22,-1.39 -1.28,0 -2.53,0.9 -2.53,3.37 0,1.86 1,5.69 1.81,7.08 1.6,2.8 3.38,3.31 4.35,3.31 v 0.97 c -4.46,0 -8.99,-4.91 -8.99,-9.92 0,-3.38 2.27,-5.78 5.27,-5.78 1.87,0 3.54,1.08 4.93,2.44 0.68,-2.1 2.69,-2.44 3.6,-2.44 1.25,0 2.12,0.76 2.75,1.84 0.76,1.36 1.22,3.35 1.22,3.49 0,0.45 -0.46,0.45 -0.55,0.45 -0.5,0 -0.53,-0.14 -0.77,-1.08 -0.42,-1.67 -1.09,-3.73 -2.54,-3.73 -0.91,0 -1.16,0.76 -1.16,1.7 0,0.59 0.28,1.86 0.53,2.77 0.24,0.93 0.6,2.35 0.77,3.12 l 0.69,2.66 c 0.21,0.9 0.62,2.54 0.62,2.72 0,0.76 -0.62,1.1 -1.17,1.1 -0.59,0 -1.41,-0.42 -1.61,-1.39 z" inkscape:connector-curvature="0" style="fill:#000000;stroke-width:0"/></g>      </g>
    </g>
  </g>
</svg>