<?xml version="1.0" encoding="UTF-8" standalone="no"?>
<!-- Created with Inkscape (http://www.inkscape.org/) -->

<svg
   xmlns:dc="http://purl.org/dc/elements/1.1/"
   xmlns:cc="http://creativecommons.org/ns#"
   xmlns:rdf="http://www.w3.org/1999/02/22-rdf-syntax-ns#"
   xmlns:svg="http://www.w3.org/2000/svg"
   xmlns="http://www.w3.org/2000/svg"
   xmlns:sodipodi="http://sodipodi.sourceforge.net/DTD/sodipodi-0.dtd"
   xmlns:inkscape="http://www.inkscape.org/namespaces/inkscape"
   width="720.88531"
   height="577.96423"
   id="svg2"
   version="1.1"
   inkscape:version="0.48.4 r9939"
   sodipodi:docname="logo.png">
  <defs
     id="defs4">
    <inkscape:perspective
       id="perspective6405"
       inkscape:persp3d-origin="300 : 400 : 1"
       inkscape:vp_z="700 : 600 : 1"
       inkscape:vp_y="0 : 1000 : 0"
       inkscape:vp_x="-50 : 600 : 1"
       sodipodi:type="inkscape:persp3d" />
  </defs>
  <sodipodi:namedview
     id="base"
     pagecolor="#ffffff"
     bordercolor="#666666"
     borderopacity="1.0"
     inkscape:pageopacity="0.0"
     inkscape:pageshadow="2"
     inkscape:zoom="0.86001396"
     inkscape:cx="426.0719"
     inkscape:cy="206.80004"
     inkscape:document-units="px"
     inkscape:current-layer="layer1"
     showgrid="false"
     inkscape:window-width="1920"
     inkscape:window-height="1055"
     inkscape:window-x="0"
     inkscape:window-y="25"
     inkscape:window-maximized="0"
     showguides="true"
     inkscape:guide-bbox="true"
     inkscape:snap-global="true"
     inkscape:snap-bbox="false"
     inkscape:bbox-paths="true"
     inkscape:snap-to-guides="true"
     inkscape:snap-nodes="true"
     inkscape:snap-grids="false"
     inkscape:bbox-nodes="true"
     inkscape:snap-bbox-edge-midpoints="true"
     inkscape:snap-bbox-midpoints="true"
     inkscape:object-paths="true"
     inkscape:object-nodes="true"
     inkscape:snap-intersection-paths="false"
     inkscape:snap-midpoints="true"
     inkscape:snap-object-midpoints="true"
     inkscape:snap-smooth-nodes="true"
     fit-margin-top="0"
     fit-margin-left="0"
     fit-margin-right="0"
     fit-margin-bottom="0">
    <inkscape:grid
       type="xygrid"
       id="grid3269"
       empspacing="5"
       visible="true"
       enabled="true"
       snapvisiblegridlinesonly="true"
       originx="-354.00979px"
       originy="-624.10132px" />
    <sodipodi:guide
       orientation="1,0"
       position="-354.00979,-624.10132"
       id="guide3275" />
    <sodipodi:guide
       orientation="0,1"
       position="-354.00979,-624.10132"
       id="guide3277" />
    <sodipodi:guide
       orientation="1,0"
       position="-124.76879,-624.10132"
       id="guide3279" />
    <sodipodi:guide
       orientation="0,1"
       position="-354.00979,-424.10132"
       id="guide3281" />
  </sodipodi:namedview>
  <metadata
     id="metadata7">
    <rdf:RDF>
      <cc:Work
         rdf:about="">
        <dc:format>image/svg+xml</dc:format>
        <dc:type
           rdf:resource="http://purl.org/dc/dcmitype/StillImage" />
        <dc:title></dc:title>
      </cc:Work>
    </rdf:RDF>
  </metadata>
  <g
     inkscape:label="Layer 1"
     inkscape:groupmode="layer"
     id="layer1"
     transform="translate(-354.00979,149.70336)">
    <g
       id="g4107"
       style="fill:#f0f0f0;fill-opacity:1;stroke:#d4d4d4;stroke-opacity:1" />
    <g
       id="g3070"
       inkscape:export-filename="/adm/anderson/tmp/wikilogo.png"
       inkscape:export-xdpi="9.9700003"
       inkscape:export-ydpi="9.9700003">
      <g
         transform="translate(131.39322,-231.39159)"
         id="g4176">
        <path
           transform="matrix(1.0982207,0,0,1.0982207,26.92195,246.07471)"
           d="m 184.2244,199.90771 24.91243,-42.98772 24.77225,-43.06866 49.68467,0.0809 49.68468,-0.0809 24.77224,43.06865 24.91243,42.98773 -24.91243,42.98772 -24.77225,43.06866 -49.68467,-0.0809 -49.68468,0.0809 -24.77224,-43.06865 z"
           inkscape:randomized="0"
           inkscape:rounded="0"
           inkscape:flatsided="false"
           sodipodi:arg2="3.6651914"
           sodipodi:arg1="3.1415927"
           sodipodi:r2="85.975449"
           sodipodi:r1="99.369347"
           sodipodi:cy="199.90771"
           sodipodi:cx="283.59375"
           sodipodi:sides="6"
           id="path4065"
           style="color:#000000;fill:#ffec00;fill-opacity:1;fill-rule:nonzero;stroke:#000000;stroke-width:9.10563755;stroke-linecap:butt;stroke-linejoin:miter;stroke-miterlimit:4;stroke-opacity:1;stroke-dasharray:none;stroke-dashoffset:0;marker:none;visibility:visible;display:inline;overflow:visible;enable-background:accumulate"
           sodipodi:type="star" />
        <path
           transform="matrix(1.0982207,0,0,1.0982207,517.152,340.58501)"
           d="m 184.2244,199.90771 24.91243,-42.98772 24.77225,-43.06866 49.68467,0.0809 49.68468,-0.0809 24.77224,43.06865 24.91243,42.98773 -24.91243,42.98772 -24.77225,43.06866 -49.68467,-0.0809 -49.68468,0.0809 -24.77224,-43.06865 z"
           inkscape:randomized="0"
           inkscape:rounded="0"
           inkscape:flatsided="false"
           sodipodi:arg2="3.6651914"
           sodipodi:arg1="3.1415927"
           sodipodi:r2="85.975449"
           sodipodi:r1="99.369347"
           sodipodi:cy="199.90771"
           sodipodi:cx="283.59375"
           sodipodi:sides="6"
           id="path4071"
           style="color:#000000;fill:#f0f0f0;fill-opacity:1;fill-rule:nonzero;stroke:#d4d4d4;stroke-width:9.10563755;stroke-linecap:butt;stroke-linejoin:miter;stroke-miterlimit:4;stroke-opacity:1;stroke-dasharray:none;stroke-dashoffset:0;marker:none;visibility:visible;display:inline;overflow:visible;enable-background:accumulate"
           sodipodi:type="star" />
        <path
           sodipodi:type="star"
           style="color:#000000;fill:#f0f0f0;fill-opacity:1;fill-rule:nonzero;stroke:#d4d4d4;stroke-width:9.10563755;stroke-linecap:butt;stroke-linejoin:miter;stroke-miterlimit:4;stroke-opacity:1;stroke-dasharray:none;stroke-dashoffset:0;marker:none;visibility:visible;display:inline;overflow:visible;enable-background:accumulate"
           id="path4073"
           sodipodi:sides="6"
           sodipodi:cx="283.59375"
           sodipodi:cy="199.90771"
           sodipodi:r1="99.369347"
           sodipodi:r2="85.975449"
           sodipodi:arg1="3.1415927"
           sodipodi:arg2="3.6651914"
           inkscape:flatsided="false"
           inkscape:rounded="0"
           inkscape:randomized="0"
           d="m 184.2244,199.90771 24.91243,-42.98772 24.77225,-43.06866 49.68467,0.0809 49.68468,-0.0809 24.77224,43.06865 24.91243,42.98773 -24.91243,42.98772 -24.77225,43.06866 -49.68467,-0.0809 -49.68468,0.0809 -24.77224,-43.06865 z"
           transform="matrix(1.0982207,0,0,1.0982207,353.4578,246.07611)" />
        <path
           transform="matrix(1.0982207,0,0,1.0982207,517.15201,151.56722)"
           d="m 184.2244,199.90771 24.91243,-42.98772 24.77225,-43.06866 49.68467,0.0809 49.68468,-0.0809 24.77224,43.06865 24.91243,42.98773 -24.91243,42.98772 -24.77225,43.06866 -49.68467,-0.0809 -49.68468,0.0809 -24.77224,-43.06865 z"
           inkscape:randomized="0"
           inkscape:rounded="0"
           inkscape:flatsided="false"
           sodipodi:arg2="3.6651914"
           sodipodi:arg1="3.1415927"
           sodipodi:r2="85.975449"
           sodipodi:r1="99.369347"
           sodipodi:cy="199.90771"
           sodipodi:cx="283.59375"
           sodipodi:sides="6"
           id="path4075"
           style="color:#000000;fill:#f0f0f0;fill-opacity:1;fill-rule:nonzero;stroke:#d4d4d4;stroke-width:9.10563755;stroke-linecap:butt;stroke-linejoin:miter;stroke-miterlimit:4;stroke-opacity:1;stroke-dasharray:none;stroke-dashoffset:0;marker:none;visibility:visible;display:inline;overflow:visible;enable-background:accumulate"
           sodipodi:type="star" />
        <path
           sodipodi:type="star"
           style="color:#000000;fill:#f0f0f0;fill-opacity:1;fill-rule:nonzero;stroke:#d4d4d4;stroke-width:9.10563755;stroke-linecap:butt;stroke-linejoin:miter;stroke-miterlimit:4;stroke-opacity:1;stroke-dasharray:none;stroke-dashoffset:0;marker:none;visibility:visible;display:inline;overflow:visible;enable-background:accumulate"
           id="path4077"
           sodipodi:sides="6"
           sodipodi:cx="283.59375"
           sodipodi:cy="199.90771"
           sodipodi:r1="99.369347"
           sodipodi:r2="85.975449"
           sodipodi:arg1="3.1415927"
           sodipodi:arg2="3.6651914"
           inkscape:flatsided="false"
           inkscape:rounded="0"
           inkscape:randomized="0"
           d="m 184.2244,199.90771 24.91243,-42.98772 24.77225,-43.06866 49.68467,0.0809 49.68468,-0.0809 24.77224,43.06865 24.91243,42.98773 -24.91243,42.98772 -24.77225,43.06866 -49.68467,-0.0809 -49.68468,0.0809 -24.77224,-43.06865 z"
           transform="matrix(1.0982207,0,0,1.0982207,353.4578,57.05832)" />
        <path
           sodipodi:type="star"
           style="color:#000000;fill:#ffec00;fill-opacity:1;fill-rule:nonzero;stroke:#000000;stroke-width:9.10563755;stroke-linecap:butt;stroke-linejoin:miter;stroke-miterlimit:4;stroke-opacity:1;stroke-dasharray:none;stroke-dashoffset:0;marker:none;visibility:visible;display:inline;overflow:visible;enable-background:accumulate"
           id="path4079"
           sodipodi:sides="6"
           sodipodi:cx="283.59375"
           sodipodi:cy="199.90771"
           sodipodi:r1="99.369347"
           sodipodi:r2="85.975449"
           sodipodi:arg1="3.1415927"
           sodipodi:arg2="3.6651914"
           inkscape:flatsided="false"
           inkscape:rounded="0"
           inkscape:randomized="0"
           d="m 184.2244,199.90771 24.91243,-42.98772 24.77225,-43.06866 49.68467,0.0809 49.68468,-0.0809 24.77224,43.06865 24.91243,42.98773 -24.91243,42.98772 -24.77225,43.06866 -49.68467,-0.0809 -49.68468,0.0809 -24.77224,-43.06865 z"
           transform="matrix(1.0982207,0,0,1.0982207,26.06938,57.05831)" />
        <path
           transform="matrix(1.0982207,0,0,1.0982207,189.76359,151.56721)"
           d="m 184.2244,199.90771 24.91243,-42.98772 24.77225,-43.06866 49.68467,0.0809 49.68468,-0.0809 24.77224,43.06865 24.91243,42.98773 -24.91243,42.98772 -24.77225,43.06866 -49.68467,-0.0809 -49.68468,0.0809 -24.77224,-43.06865 z"
           inkscape:randomized="0"
           inkscape:rounded="0"
           inkscape:flatsided="false"
           sodipodi:arg2="3.6651914"
           sodipodi:arg1="3.1415927"
           sodipodi:r2="85.975449"
           sodipodi:r1="99.369347"
           sodipodi:cy="199.90771"
           sodipodi:cx="283.59375"
           sodipodi:sides="6"
           id="path4081"
           style="color:#000000;fill:#ffec00;fill-opacity:1;fill-rule:nonzero;stroke:#000000;stroke-width:9.10563755;stroke-linecap:butt;stroke-linejoin:miter;stroke-miterlimit:4;stroke-opacity:1;stroke-dasharray:none;stroke-dashoffset:0;marker:none;visibility:visible;display:inline;overflow:visible;enable-background:accumulate"
           sodipodi:type="star" />
        <path
           sodipodi:type="star"
           style="color:#000000;fill:#ffec00;fill-opacity:1;fill-rule:nonzero;stroke:#000000;stroke-width:9.10563755;stroke-linecap:butt;stroke-linejoin:miter;stroke-miterlimit:4;stroke-opacity:1;stroke-dasharray:none;stroke-dashoffset:0;marker:none;visibility:visible;display:inline;overflow:visible;enable-background:accumulate"
           id="path4083"
           sodipodi:sides="6"
           sodipodi:cx="283.59375"
           sodipodi:cy="199.90771"
           sodipodi:r1="99.369347"
           sodipodi:r2="85.975449"
           sodipodi:arg1="3.1415927"
           sodipodi:arg2="3.6651914"
           inkscape:flatsided="false"
           inkscape:rounded="0"
           inkscape:randomized="0"
           d="m 184.2244,199.90771 24.91243,-42.98772 24.77225,-43.06866 49.68467,0.0809 49.68468,-0.0809 24.77224,43.06865 24.91243,42.98773 -24.91243,42.98772 -24.77225,43.06866 -49.68467,-0.0809 -49.68468,0.0809 -24.77224,-43.06865 z"
           transform="matrix(1.0982207,0,0,1.0982207,190.61616,340.58361)" />
        <path
           transform="matrix(1.0982207,0,0,1.0982207,189.76359,-38.326705)"
           d="m 184.2244,199.90771 24.91243,-42.98772 24.77225,-43.06866 49.68467,0.0809 49.68468,-0.0809 24.77224,43.06865 24.91243,42.98773 -24.91243,42.98772 -24.77225,43.06866 -49.68467,-0.0809 -49.68468,0.0809 -24.77224,-43.06865 z"
           inkscape:randomized="0"
           inkscape:rounded="0"
           inkscape:flatsided="false"
           sodipodi:arg2="3.6651914"
           sodipodi:arg1="3.1415927"
           sodipodi:r2="85.975449"
           sodipodi:r1="99.369347"
           sodipodi:cy="199.90771"
           sodipodi:cx="283.59375"
           sodipodi:sides="6"
           id="path4529"
           style="color:#000000;fill:#ffec00;fill-opacity:1;fill-rule:nonzero;stroke:#000000;stroke-width:9.10563755;stroke-linecap:butt;stroke-linejoin:miter;stroke-miterlimit:4;stroke-opacity:1;stroke-dasharray:none;stroke-dashoffset:0;marker:none;visibility:visible;display:inline;overflow:visible;enable-background:accumulate"
           sodipodi:type="star" />
      </g>
      <g
         transform="translate(131.39322,-231.39159)"
         id="g4126"
         style="stroke:#d4d4d4;stroke-width:5;stroke-miterlimit:4;stroke-opacity:1;stroke-dasharray:none">
        <path
           style="fill:none;stroke:#d4d4d4;stroke-width:5;stroke-linecap:butt;stroke-linejoin:miter;stroke-miterlimit:4;stroke-opacity:1;stroke-dasharray:none"
           d="m 664.90633,712.4279 -109.12898,8.5e-4"
           id="path4124"
           inkscape:connector-curvature="0"
           transform="translate(0,-435.82679)" />
        <path
           style="fill:none;stroke:#d4d4d4;stroke-width:5;stroke-linecap:butt;stroke-linejoin:miter;stroke-miterlimit:4;stroke-opacity:1;stroke-dasharray:none"
           d="m 719.47107,617.91901 -54.56474,94.50889 54.56523,94.50975"
           id="path4122"
           inkscape:connector-curvature="0"
           transform="translate(0,-435.82679)" />
      </g>
      <text
         transform="scale(1.0799711,0.9259507)"
         sodipodi:linespacing="125%"
         id="text3972"
         y="176.43103"
         x="498.09769"
         style="font-size:78.18486786px;font-style:italic;font-variant:normal;font-weight:normal;font-stretch:normal;text-align:start;line-height:125%;letter-spacing:0px;word-spacing:0px;writing-mode:lr-tb;text-anchor:start;fill:#000000;fill-opacity:1;stroke:none;font-family:Sansita One;-inkscape-font-specification:Sansita One Italic"
         xml:space="preserve"><tspan
           y="176.43103"
           x="498.09769"
           id="tspan3974"
           sodipodi:role="line">hive</tspan></text>
      <g
         transform="translate(295.08743,-136.88269)"
         id="g4130"
         style="stroke:#d4d4d4;stroke-width:5;stroke-miterlimit:4;stroke-opacity:1;stroke-dasharray:none">
        <path
           transform="translate(0,-435.82679)"
           inkscape:connector-curvature="0"
           id="path4132"
           d="m 719.47107,617.91901 -54.56474,94.50889 54.56523,94.50975"
           style="fill:none;stroke:#d4d4d4;stroke-width:5;stroke-linecap:butt;stroke-linejoin:miter;stroke-miterlimit:4;stroke-opacity:1;stroke-dasharray:none" />
        <path
           transform="translate(0,-435.82679)"
           inkscape:connector-curvature="0"
           id="path4134"
           d="m 664.90633,712.4279 -109.12898,8.5e-4"
           style="fill:none;stroke:#d4d4d4;stroke-width:5;stroke-linecap:butt;stroke-linejoin:miter;stroke-miterlimit:4;stroke-opacity:1;stroke-dasharray:none" />
      </g>
      <text
         transform="matrix(1.0588547,0.00101712,-0.00114037,0.94441553,0,0)"
         sodipodi:linespacing="125%"
         id="text2985-0"
         y="335.42371"
         x="645.13611"
         style="font-size:433.18054199px;font-style:normal;font-variant:normal;font-weight:normal;font-stretch:normal;text-align:start;line-height:125%;letter-spacing:0px;word-spacing:0px;writing-mode:lr-tb;text-anchor:start;fill:#000000;fill-opacity:1;stroke:#fbfbfb;stroke-width:0;stroke-miterlimit:4;stroke-opacity:1;stroke-dasharray:none;font-family:Atomic Age;-inkscape-font-specification:Atomic Age"
         xml:space="preserve"><tspan
           style="font-size:433.18054199px;font-style:normal;font-variant:normal;font-weight:normal;font-stretch:normal;text-align:start;line-height:125%;writing-mode:lr-tb;text-anchor:start;stroke:#fbfbfb;stroke-width:0;stroke-miterlimit:4;stroke-opacity:1;stroke-dasharray:none;font-family:Atomic Age;-inkscape-font-specification:Atomic Age"
           y="335.42371"
           x="645.13611"
           id="tspan2987-5"
           sodipodi:role="line">5</tspan></text>
      <g
         id="g4136"
         transform="translate(131.39321,-42.373803)"
         style="stroke:#d4d4d4;stroke-width:5;stroke-miterlimit:4;stroke-opacity:1;stroke-dasharray:none">
        <path
           style="fill:none;stroke:#d4d4d4;stroke-width:5;stroke-linecap:butt;stroke-linejoin:miter;stroke-miterlimit:4;stroke-opacity:1;stroke-dasharray:none"
           d="m 719.47107,617.91901 -54.56474,94.50889 54.56523,94.50975"
           id="path4138"
           inkscape:connector-curvature="0"
           transform="translate(0,-435.82679)" />
        <path
           style="fill:none;stroke:#d4d4d4;stroke-width:5;stroke-linecap:butt;stroke-linejoin:miter;stroke-miterlimit:4;stroke-opacity:1;stroke-dasharray:none"
           d="m 664.90633,712.4279 -109.12898,8.5e-4"
           id="path4140"
           inkscape:connector-curvature="0"
           transform="translate(0,-435.82679)" />
      </g>
      <g
         transform="translate(295.08742,52.135097)"
         id="g4142"
         style="stroke:#d4d4d4;stroke-width:5;stroke-miterlimit:4;stroke-opacity:1;stroke-dasharray:none">
        <path
           transform="translate(0,-435.82679)"
           inkscape:connector-curvature="0"
           id="path4144"
           d="m 719.47107,617.91901 -54.56474,94.50889 54.56523,94.50975"
           style="fill:none;stroke:#d4d4d4;stroke-width:5;stroke-linecap:butt;stroke-linejoin:miter;stroke-miterlimit:4;stroke-opacity:1;stroke-dasharray:none" />
        <path
           transform="translate(0,-435.82679)"
           inkscape:connector-curvature="0"
           id="path4146"
           d="m 664.90633,712.4279 -109.12898,8.5e-4"
           style="fill:none;stroke:#d4d4d4;stroke-width:5;stroke-linecap:butt;stroke-linejoin:miter;stroke-miterlimit:4;stroke-opacity:1;stroke-dasharray:none" />
      </g>
      <path
         sodipodi:nodetypes="cccccc"
         inkscape:connector-curvature="0"
         id="path4203"
         d="m 578.0406,45.209517 109.12947,0 54.56474,94.508893 -53.71216,94.50751 54.56473,94.5089 -53.40339,92.4898"
         style="fill:none;stroke:#000000;stroke-width:10;stroke-linecap:square;stroke-linejoin:miter;stroke-miterlimit:4;stroke-opacity:1;stroke-dasharray:none" />
      <g
         transform="translate(130.8671,-242.05313)"
         id="g4507">
        <path
           style="fill:#000000;fill-opacity:1;stroke:none"
           d="m 501.73614,173.8655 c -11.18153,1e-4 -19.71298,7.53032 -24.92519,16.26236 -5.2118,8.73194 -8.20322,19.4651 -8.20322,31.27378 -1e-4,11.80868 2.99122,22.85458 8.20322,31.58652 5.21231,8.73184 13.74346,16.26236 24.92519,16.26236 11.18163,1e-4 20.0285,-7.53042 25.2407,-16.26236 5.2121,-8.73194 7.88772,-19.77784 7.88772,-31.58652 10e-5,-11.80868 -2.67582,-22.54184 -7.88772,-31.27378 -5.2121,-8.73204 -14.05917,-16.26236 -25.2407,-16.26236 z m 0,11.25856 c 14.10824,0 25.55621,17.32857 25.55621,38.46675 0,21.13827 -11.44827,38.154 -25.55621,38.154 -14.10803,1e-4 -25.5562,-17.01573 -25.5562,-38.154 0,-21.13818 11.44807,-38.46675 25.5562,-38.46675 z"
           id="path6279"
           inkscape:connector-curvature="0" />
        <g
           id="g4453">
          <path
             inkscape:connector-curvature="0"
             id="path5951"
             d="m 501.84236,193.26845 c -13.3804,0 -25.24444,7.13943 -32.49003,18.30782 -0.39477,3.50246 -0.57347,7.15294 -0.63708,10.84915 7.15513,-10.26921 19.25694,-16.95169 33.127,-16.95169 13.72236,0 25.79226,6.52546 32.91458,16.61273 -0.0606,-3.46603 -0.29582,-6.87603 -0.63707,-10.17123 -7.17503,-11.25156 -18.83845,-18.64678 -32.27751,-18.64678 z"
             style="fill:#000000;fill-opacity:1;stroke:none"
             sodipodi:nodetypes="cccsccc" />
          <path
             inkscape:connector-curvature="0"
             id="path5956"
             d="m 496.13887,237.66611 c -8.30874,1.07471 -15.77069,4.85079 -22.00313,9.94836 0.76227,1.49834 1.40752,3.20954 2.31609,4.59159 0.77337,1.1762 1.77987,2.33368 2.70207,3.44362 6.59468,-3.40279 14.1881,-5.35677 22.3893,-5.35677 8.20091,0 15.78766,1.95418 22.38921,5.35677 0.92179,-1.10994 1.92859,-2.26732 2.70207,-3.44362 0.93996,-1.43029 1.9295,-3.03711 2.70206,-4.59159 -7.55292,-6.27417 -17.24525,-9.94836 -27.79334,-9.94836 -1.90082,0 -3.56812,-0.23718 -5.40433,0 z"
             style="fill:#000000;fill-opacity:1;stroke:none" />
          <path
             inkscape:connector-curvature="0"
             sodipodi:nodetypes="cccsccc"
             id="path5958"
             d="m 501.6163,214.8993 c -12.6464,0 -22.03462,5.9192 -30.53276,14.47 0.48361,3.5474 -0.69261,6.39926 0.42303,9.63572 8.19242,-6.21032 18.63561,-9.94846 30.10963,-9.94846 11.47402,0 21.95496,3.73814 30.10963,9.94846 1.0805,-3.23646 0.28269,-6.08832 0.73803,-9.63572 -8.44957,-8.61025 -18.12564,-14.47 -30.84817,-14.47 z"
             style="fill:#000000;fill-opacity:1;stroke:none" />
          <g
             transform="matrix(12.352669,0,0,12.244183,-1443.8092,-1550.4155)"
             id="g6140"
             style="fill:#000000;fill-opacity:1">
            <path
               inkscape:connector-curvature="0"
               sodipodi:nodetypes="csccsssssssssccssc"
               id="path6132"
               d="m 152.47461,139.31177 c 0.80018,0.0566 2.01023,0.39256 3.38682,1.18733 0.12836,0.0741 0.22996,0.15798 0.35036,0.23357 -0.13259,0.11323 -0.24255,0.24209 -0.35036,0.36983 -0.0795,-0.0502 -0.15047,-0.10773 -0.23358,-0.15572 -0.81876,-0.47271 -1.6521,-0.7421 -2.33573,-0.79804 -0.68363,-0.0559 -1.2167,0.0992 -1.44038,0.48661 -0.44734,0.77484 0.71888,1.89975 2.35641,2.84518 0.11049,0.0638 0.30891,0.19156 0.42061,0.24695 -0.0154,0.0174 -0.33154,0.23609 -0.34396,0.25576 -0.11107,-0.0608 -0.21587,-0.10877 -0.33089,-0.17518 -1.37659,-0.79477 -2.29538,-1.67105 -2.74449,-2.33574 -0.44911,-0.66467 -0.52651,-1.20932 -0.29197,-1.61555 0.23454,-0.40623 0.75697,-0.6016 1.55716,-0.545 z m 2.58877,4.96344 c 0.01,0.0381 0.012,0.0775 0.0195,0.11679 -0.0126,-0.006 -0.0263,-0.0138 -0.0389,-0.0195 0.0138,-0.0326 0.014,-0.0612 0.0195,-0.0973 z"
               style="fill:#000000;fill-opacity:1;stroke:none" />
            <path
               inkscape:connector-curvature="0"
               id="path6134"
               d="m 155.24057,143.32695 c -0.0239,0.0902 -0.0702,0.17466 -0.0883,0.26694 -0.006,0.003 0.002,0.022 -0.005,0.0246 -1.74469,0.69266 -2.79675,1.65168 -2.39999,2.32568 0.33162,0.56334 1.55701,0.76531 3.08405,0.61705 0.0246,0.0332 0.0257,0.0722 0.0515,0.10496 0.0362,0.0461 0.078,0.0905 0.11736,0.13625 -0.81174,0.12183 -1.5532,0.17368 -2.15332,0.14669 -1.07038,-0.0482 -1.79991,-0.28559 -2.05563,-0.71999 -0.25571,-0.4344 0.0173,-0.97667 0.73223,-1.53242 0.58365,-0.45372 1.50995,-0.94959 2.71693,-1.36972 z"
               style="fill:#000000;fill-opacity:1;stroke:none" />
          </g>
          <g
             transform="matrix(-12.352669,0,0,12.244183,2447.2815,-1550.4155)"
             id="g6144"
             style="fill:#000000;fill-opacity:1">
            <path
               inkscape:connector-curvature="0"
               style="fill:#000000;fill-opacity:1;stroke:none"
               d="m 152.47461,139.31177 c 0.80018,0.0566 2.01023,0.39256 3.38682,1.18733 0.12836,0.0741 0.22996,0.15798 0.35036,0.23357 -0.13259,0.11323 -0.24255,0.24209 -0.35036,0.36983 -0.0795,-0.0502 -0.15047,-0.10773 -0.23358,-0.15572 -0.81876,-0.47271 -1.6521,-0.7421 -2.33573,-0.79804 -0.68363,-0.0559 -1.2167,0.0992 -1.44038,0.48661 -0.44734,0.77484 0.71888,1.89975 2.35641,2.84518 0.11049,0.0638 0.30891,0.19156 0.42061,0.24695 -0.0154,0.0174 -0.33154,0.23609 -0.34396,0.25576 -0.11107,-0.0608 -0.21587,-0.10877 -0.33089,-0.17518 -1.37659,-0.79477 -2.29538,-1.67105 -2.74449,-2.33574 -0.44911,-0.66467 -0.52651,-1.20932 -0.29197,-1.61555 0.23454,-0.40623 0.75697,-0.6016 1.55716,-0.545 z m 2.58877,4.96344 c 0.01,0.0381 0.012,0.0775 0.0195,0.11679 -0.0126,-0.006 -0.0263,-0.0138 -0.0389,-0.0195 0.0138,-0.0326 0.014,-0.0612 0.0195,-0.0973 z"
               id="path6146"
               sodipodi:nodetypes="csccsssssssssccssc" />
            <path
               inkscape:connector-curvature="0"
               style="fill:#000000;fill-opacity:1;stroke:none"
               d="m 155.24057,143.32695 c -0.0239,0.0902 -0.0702,0.17466 -0.0883,0.26694 -0.006,0.003 0.002,0.022 -0.005,0.0246 -1.74469,0.69266 -2.79675,1.65168 -2.39999,2.32568 0.33162,0.56334 1.55701,0.76531 3.08405,0.61705 0.0246,0.0332 0.0257,0.0722 0.0515,0.10496 0.0362,0.0461 0.078,0.0905 0.11736,0.13625 -0.81174,0.12183 -1.5532,0.17368 -2.15332,0.14669 -1.07038,-0.0482 -1.79991,-0.28559 -2.05563,-0.71999 -0.25571,-0.4344 0.0173,-0.97667 0.73223,-1.53242 0.58365,-0.45372 1.50995,-0.94959 2.71693,-1.36972 z"
               id="path6148" />
          </g>
          <path
             inkscape:connector-curvature="0"
             id="path5883"
             d="m 501.85629,140.28166 c -16.13123,0 -29.33353,11.09954 -29.33333,25.02433 0,8.52989 4.95596,16.15738 12.50273,20.73446 1.53181,-3.61444 7.9385,-6.43489 15.86883,-6.43489 8.49692,0 15.50859,3.1506 16.34991,7.14984 8.2428,-4.4657 13.70489,-12.41184 13.70489,-21.44941 0,-13.92479 -12.9617,-25.02433 -29.09303,-25.02433 z m -18.51365,14.53796 c 2.73226,0 4.80876,3.73724 4.80876,8.34144 -1e-4,4.6042 -2.0765,8.34134 -4.80876,8.34134 -2.73246,1e-4 -5.04925,-3.73714 -5.04925,-8.34134 0,-4.6042 2.317,-8.34144 5.04925,-8.34144 z m 36.787,0 c 2.73236,0 5.04925,3.73724 5.04925,8.34144 0,4.6042 -2.31699,8.34134 -5.04925,8.34134 -2.73235,1e-4 -4.80875,-3.73714 -4.80875,-8.34134 0,-4.6042 2.0764,-8.34144 4.80875,-8.34144 z"
             style="fill:#000000;fill-opacity:1;stroke:none" />
          <path
             sodipodi:nodetypes="cc"
             transform="translate(0,-435.82679)"
             inkscape:connector-curvature="0"
             id="path4437"
             d="m 490.10833,581.80832 c 0.77556,-11.38557 -4.07253,-21.36522 -15.69742,-29.65068"
             style="fill:none;stroke:#000000;stroke-width:1px;stroke-linecap:butt;stroke-linejoin:miter;stroke-opacity:1" />
          <path
             style="fill:none;stroke:#000000;stroke-width:1px;stroke-linecap:butt;stroke-linejoin:miter;stroke-opacity:1"
             d="m 510.53668,146.56292 c -0.77556,-11.38557 4.07253,-21.36522 15.69742,-29.65068"
             id="path4439"
             inkscape:connector-curvature="0"
             sodipodi:nodetypes="cc" />
          <path
             transform="matrix(1.4646869,0,0,1.6631795,-227.81028,-837.89182)"
             d="m 488.8136,602.08447 c 0,2.86975 -1.51297,5.19614 -3.3793,5.19614 -1.86634,0 -3.37931,-2.32639 -3.37931,-5.19614 0,-2.86974 1.51297,-5.19613 3.37931,-5.19613 1.86633,0 3.3793,2.32639 3.3793,5.19613 z"
             sodipodi:ry="5.1961365"
             sodipodi:rx="3.3793056"
             sodipodi:cy="602.08447"
             sodipodi:cx="485.4343"
             id="path4441"
             style="color:#000000;fill:#ffffff;fill-opacity:1;fill-rule:nonzero;stroke:#ffffff;stroke-width:0.64070487;stroke-miterlimit:4;stroke-dasharray:none;marker:none;visibility:visible;display:inline;overflow:visible;enable-background:accumulate"
             sodipodi:type="arc" />
          <path
             sodipodi:type="arc"
             style="color:#000000;fill:#ffffff;fill-opacity:1;fill-rule:nonzero;stroke:#ffffff;stroke-width:0.64070487;stroke-miterlimit:4;stroke-dasharray:none;marker:none;visibility:visible;display:inline;overflow:visible;enable-background:accumulate"
             id="path4443"
             sodipodi:cx="485.4343"
             sodipodi:cy="602.08447"
             sodipodi:rx="3.3793056"
             sodipodi:ry="5.1961365"
             d="m 488.8136,602.08447 c 0,2.86975 -1.51297,5.19614 -3.3793,5.19614 -1.86634,0 -3.37931,-2.32639 -3.37931,-5.19614 0,-2.86974 1.51297,-5.19613 3.37931,-5.19613 1.86633,0 3.3793,2.32639 3.3793,5.19613 z"
             transform="matrix(1.4646869,0,0,1.6631795,-191.01666,-837.89182)" />
        </g>
        <path
           style="color:#000000;fill:#ffec00;fill-opacity:1;fill-rule:nonzero;stroke:#000000;stroke-width:2.05550957;stroke-linecap:butt;stroke-linejoin:miter;stroke-miterlimit:4;stroke-opacity:1;stroke-dasharray:none;stroke-dashoffset:0;marker:none;visibility:visible;display:inline;overflow:visible;enable-background:accumulate"
           d="m 482.6781,634.13879 c 0,-0.16183 1.58547,-2.52507 2.44194,-3.63987 4.66737,-6.0751 10.46344,-9.35576 16.52917,-9.35576 2.59046,0 4.54954,0.40441 6.96247,1.43727 4.3405,1.85795 8.43049,5.58821 11.57894,10.56052 0.42013,0.6635 0.68461,1.16828 0.58775,1.12173 -0.0969,-0.0466 -1.42484,-0.70193 -2.95106,-1.4564 -3.09473,-1.52985 -5.62016,-2.41598 -8.63835,-3.03104 -8.11194,-1.65311 -16.43344,-0.55062 -23.97572,3.17646 -1.39433,0.68902 -2.53514,1.22321 -2.53514,1.18709 z"
           id="path4499"
           inkscape:connector-curvature="0"
           transform="translate(0,-435.82679)" />
        <path
           style="color:#000000;fill:#ffec00;fill-opacity:1;fill-rule:nonzero;stroke:#000000;stroke-width:2.05550957;stroke-linecap:butt;stroke-linejoin:miter;stroke-miterlimit:4;stroke-opacity:1;stroke-dasharray:none;stroke-dashoffset:0;marker:none;visibility:visible;display:inline;overflow:visible;enable-background:accumulate"
           d="m 476.30602,658.38698 c 0,-1.73784 0.45195,-6.79065 0.73081,-8.17049 0.10132,-0.50135 0.47654,-0.86712 1.85149,-1.80491 5.0568,-3.44899 11.30607,-5.79879 17.64085,-6.63317 3.13937,-0.4135 9.54882,-0.29584 12.45945,0.22872 5.57414,1.00458 10.93201,3.14419 15.55776,6.21283 1.81506,1.20408 1.72873,1.05635 2.1256,3.63726 0.29845,1.94083 0.59901,7.78763 0.41086,7.99248 -0.0837,0.0912 -0.41988,-0.0574 -0.74702,-0.33019 -1.39708,-1.16487 -5.3751,-3.71248 -7.32475,-4.69094 -5.83199,-2.92685 -10.85226,-4.11203 -17.42228,-4.11304 -9.21564,-10e-4 -16.04538,2.50964 -24.71751,9.08782 l -0.56526,0.42878 0,-1.84515 z"
           id="path4501"
           inkscape:connector-curvature="0"
           transform="translate(0,-435.82679)" />
        <path
           style="color:#000000;fill:#ffec00;fill-opacity:1;fill-rule:nonzero;stroke:#000000;stroke-width:2.05550957;stroke-linecap:butt;stroke-linejoin:miter;stroke-miterlimit:4;stroke-opacity:1;stroke-dasharray:none;stroke-dashoffset:0;marker:none;visibility:visible;display:inline;overflow:visible;enable-background:accumulate"
           d="m 479.76511,678.52312 c -0.49516,-1.25346 -1.43534,-4.11865 -1.6965,-5.17002 -0.61763,-2.48651 -0.76418,-2.13896 1.34952,-3.20053 4.81842,-2.41995 10.78055,-4.17101 16.41523,-4.82111 2.77026,-0.31962 8.99508,-0.32577 11.51085,-0.0114 4.35602,0.54436 8.66319,1.5981 12.38148,3.0291 2.56147,0.98579 6.11811,2.71604 6.11811,2.97636 0,0.63955 -1.877,6.95601 -2.24305,7.5483 -0.12733,0.20602 -0.58786,0.0561 -1.99315,-0.64871 -6.64228,-3.33156 -11.89044,-4.55642 -20.53269,-4.7921 -4.33712,-0.11827 -4.92246,-0.0916 -7.08555,0.32305 -3.48225,0.66751 -7.69434,2.124 -11.06707,3.82686 l -2.94184,1.48531 -0.21534,-0.54513 z"
           id="path4503"
           inkscape:connector-curvature="0"
           transform="translate(0,-435.82679)" />
        <path
           style="color:#000000;fill:#ffec00;fill-opacity:1;fill-rule:nonzero;stroke:#000000;stroke-width:2.05550957;stroke-linecap:butt;stroke-linejoin:miter;stroke-miterlimit:4;stroke-opacity:1;stroke-dasharray:none;stroke-dashoffset:0;marker:none;visibility:visible;display:inline;overflow:visible;enable-background:accumulate"
           d="m 498.29997,697.08196 c -4.31163,-0.92916 -7.88008,-3.10643 -11.68494,-7.12951 l -1.06298,-1.12395 2.31433,-0.64495 c 5.44285,-1.51682 7.51609,-1.78007 13.92796,-1.76852 4.53052,0.008 5.60403,0.0736 7.91371,0.4823 2.61016,0.46188 7.45156,1.73882 7.75928,2.04654 0.43727,0.43727 -4.0933,4.52022 -6.55584,5.90812 -4.03046,2.27158 -8.63793,3.08628 -12.61152,2.22997 z"
           id="path4505"
           inkscape:connector-curvature="0"
           transform="translate(0,-435.82679)" />
      </g>
    </g>
    <path
       style="fill:none;stroke:#000000;stroke-width:10;stroke-linecap:butt;stroke-linejoin:miter;stroke-miterlimit:4;stroke-opacity:1;stroke-dasharray:none"
       d="m 687.17007,480.16018 54.56474,-94.50889"
       id="path3120"
       inkscape:connector-curvature="0"
       transform="translate(0,-435.82679)" />
  </g>
</svg>
